<svg id="Layer_1" height="512" viewBox="0 0 128 128" width="512" xmlns="http://www.w3.org/2000/svg" data-name="Layer 1"><path d="m38.14 102.625-11.208-2.198v17.573h11.208z" fill="#deecf1"/><path d="m79.1 30.584h-22.168a4.207 4.207 0 0 1 -4.163-3.6l-1.769-12.17a4.207 4.207 0 0 1 4.159-4.814h25.713a4.207 4.207 0 0 1 4.163 4.814l-1.774 12.17a4.207 4.207 0 0 1 -4.161 3.6z" fill="#e43c53"/><path d="m56.932 30.584h22.166v6.166h-22.166z" fill="#fbbe2c"/><path d="m47.328 36.75h41.372a7.812 7.812 0 0 1 7.812 7.812v51.292a7.812 7.812 0 0 1 -7.812 7.812h-41.372a7.813 7.813 0 0 1 -7.813-7.813v-51.29a7.813 7.813 0 0 1 7.813-7.813z" fill="#fbbe2c"/><path d="m33.765 111h68.5v7h-68.5z" fill="#e43c53"/><path d="m47.328 36.75h41.375v66.917h-41.375z" fill="#e43c53"/><path d="m47.328 51.25h41.375v28.729h-41.375z" fill="#fbbe2c"/><path d="m70.073 25.133a3.167 3.167 0 0 1 3.167 3.167v70.788a0 0 0 0 1 0 0h-6.333a0 0 0 0 1 0 0v-70.788a3.167 3.167 0 0 1 3.167-3.167z" fill="#deecf1" transform="matrix(.742 .67 -.67 .742 59.716 -30.952)"/><path d="m35.432 87.753h10.375v13.917h-10.375z" fill="#6e6e6e" transform="matrix(.742 .67 -.67 .742 73.973 -2.796)"/><path d="m41.1 103.667h53.832a7.333 7.333 0 0 1 7.333 7.333 0 0 0 0 1 0 0h-68.5a0 0 0 0 1 0 0 7.333 7.333 0 0 1 7.335-7.333z" fill="#fbbe2c"/><path d="m27.751 94.106h15.875v12.125h-15.875z" fill="#444" transform="matrix(.742 .67 -.67 .742 76.359 1.917)"/><path d="m80.872 10h-12.857v20.584h11.085a4.207 4.207 0 0 0 4.163-3.6l1.774-12.17a4.207 4.207 0 0 0 -4.165-4.814z" fill="#ca3046"/><path d="m88.7 36.75h-20.685v66.917h20.685a7.812 7.812 0 0 0 7.813-7.813v-51.291a7.812 7.812 0 0 0 -7.813-7.813z" fill="#fd9e27"/><path d="m68.015 36.75h20.688v66.917h-20.688z" fill="#ca3046"/><path d="m68.015 51.25h20.688v28.729h-20.688z" fill="#fd9e27"/><path d="m90.39 34.9-22.375 24.765v9.447l27.074-29.967a3.167 3.167 0 1 0 -4.7-4.246z" fill="#c7e2e7"/><path d="m68.015 103.667v7.333h34.25a7.333 7.333 0 0 0 -7.333-7.333z" fill="#fd9e27"/><path d="m68.015 111h34.25v7h-34.25z" fill="#ca3046"/><g fill="#2d2d2d"><path d="m64.333 11.75h.917a1.75 1.75 0 0 0 0-3.5h-.917a1.75 1.75 0 0 0 0 3.5z"/><path d="m81.833 109.25h-.458a1.75 1.75 0 0 0 0 3.5h.458a1.75 1.75 0 0 0 0-3.5z"/><path d="m64.181 61.3-.415.459a1.75 1.75 0 1 0 2.6 2.348l.415-.459a1.75 1.75 0 0 0 -2.6-2.348z"/><path d="m96.027 101.99a9.516 9.516 0 0 0 2.238-6.135v-51.292a9.575 9.575 0 0 0 -1.374-4.927 4.914 4.914 0 0 0 -.854-6.26 4.831 4.831 0 0 0 -3.545-1.263 4.887 4.887 0 0 0 -3.4 1.614l-1.152 1.273h-7.092v-2.955a5.978 5.978 0 0 0 4.145-4.81l1.773-12.169a5.957 5.957 0 0 0 -5.895-6.816h-10.2a1.75 1.75 0 0 0 0 3.5h10.2a2.457 2.457 0 0 1 2.429 2.812l-1.773 12.17a2.471 2.471 0 0 1 -2.432 2.1h-22.162a2.471 2.471 0 0 1 -2.432-2.1l-1.774-12.17a2.459 2.459 0 0 1 2.432-2.812h3.175a1.75 1.75 0 0 0 0-3.5h-3.176a5.957 5.957 0 0 0 -5.895 6.816l1.774 12.169a5.978 5.978 0 0 0 4.145 4.81v2.955h-7.855a9.574 9.574 0 0 0 -9.562 9.563v42.96l-1.986 2.2-.743-.671a1.749 1.749 0 0 0 -2.472.126l-8.128 9a1.75 1.75 0 0 0 .126 2.472l.619.559v16.791a1.75 1.75 0 0 0 3.5 0v-13.634l3.9 3.521a9.093 9.093 0 0 0 -.566 3.113v7a1.75 1.75 0 0 0 1.75 1.75h68.5a1.75 1.75 0 0 0 1.75-1.75v-7a9.091 9.091 0 0 0 -7.988-9.01zm-46.95-.073v-6.217l1.354-1.5a1.75 1.75 0 0 0 -.126-2.472l-.2-.181 8.869-9.817h22.859a1.75 1.75 0 0 0 0-3.5h-19.7l22.798-25.23h2.021v48.917zm45.329-59.4a6.072 6.072 0 0 1 .358 2.05v51.287a6.072 6.072 0 0 1 -4.312 5.8v-54.765zm-1.739-6.9a1.417 1.417 0 0 1 1.123 2.365l-46.281 51.218-1.645-1.485-.457-.413 16.922-18.733a1.75 1.75 0 0 0 -2.6-2.346l-10.652 11.793v-25.016h22.6l-3.32 3.675a1.75 1.75 0 1 0 2.6 2.346l20.731-22.949a1.411 1.411 0 0 1 .98-.465zm-33.984-3.283h18.665v2.666h-18.665zm-11.356 6.166h37.451l-9.938 11h-25.763v-7a1.75 1.75 0 0 0 -3.5 0v39.39l-2.768 3.063-.2-.182a1.774 1.774 0 0 0 -1.262-.449c-.028 0-.054.01-.081.012v-39.771a6.069 6.069 0 0 1 6.061-6.063zm-5.767 50.042 5.1 4.609-3.184 3.525-5.1-4.609zm-7.572 4.278 9.183 8.3-5.781 6.4-9.183-8.3zm66.526 23.43h-65v-3.5h40.194a1.75 1.75 0 0 0 0-3.5h-35.168l3.46-3.833h50.932a5.591 5.591 0 0 1 5.3 3.833h-12.274a1.75 1.75 0 0 0 0 3.5h12.557z"/></g></svg>