<svg width="512" height="512" viewBox="0 0 512 512" fill="none" xmlns="http://www.w3.org/2000/svg">
<path d="M152.56 410.5L107.728 401.708V472H152.56V410.5Z" fill="#DEECF1"/>
<path d="M316.4 122.336H227.728C223.685 122.336 219.778 120.881 216.72 118.237C213.663 115.593 211.659 111.936 211.076 107.936L204 59.256C203.652 56.8675 203.821 54.4321 204.497 52.1149C205.173 49.7978 206.34 47.6532 207.918 45.8267C209.496 44.0002 211.448 42.5345 213.643 41.5292C215.837 40.5238 218.222 40.0023 220.636 40H323.488C325.903 40 328.29 40.5198 330.486 41.5242C332.682 42.5285 334.637 43.9939 336.217 45.8206C337.796 47.6474 338.964 49.7928 339.641 52.1111C340.318 54.4294 340.488 56.8662 340.14 59.256L333.044 107.936C332.461 111.935 330.458 115.59 327.402 118.234C324.346 120.878 320.441 122.334 316.4 122.336V122.336Z" fill="#23B40C"/>
<path d="M227.728 122.336H316.392V147H227.728V122.336Z" fill="#FBBE2C"/>
<path d="M189.312 147H354.8C363.088 147 371.036 150.292 376.896 156.152C382.756 162.012 386.048 169.961 386.048 178.248V383.416C386.048 391.703 382.756 399.652 376.896 405.512C371.036 411.372 363.088 414.664 354.8 414.664H189.312C181.024 414.664 173.074 411.371 167.214 405.51C161.353 399.65 158.06 391.701 158.06 383.412V178.252C158.06 169.963 161.353 162.014 167.214 156.154C173.074 150.293 181.024 147 189.312 147V147Z" fill="#FBBE2C"/>
<path d="M135.06 444H409.06V472H135.06V444Z" fill="#23B40C"/>
<path d="M189.312 147H354.812V414.668H189.312V147Z" fill="#23B40C"/>
<path d="M189.312 205H354.812V319.916H189.312V205Z" fill="#FBBE2C"/>
<path d="M379.484 138.582C381.977 140.833 383.474 143.983 383.645 147.337C383.816 150.692 382.647 153.977 380.396 156.47L190.684 366.568L171.888 349.596L361.6 139.497C363.851 137.004 367 135.508 370.355 135.336C373.709 135.165 376.994 136.334 379.487 138.585L379.484 138.582Z" fill="#DEECF1"/>
<path d="M165.876 344.225L196.669 372.03L159.371 413.335L128.578 385.53L165.876 344.225Z" fill="#6E6E6E"/>
<path d="M135.597 361.347L182.714 403.892L150.219 439.879L103.102 397.334L135.597 361.347Z" fill="#444444"/>
<path d="M323.488 40H272.06V122.336H316.4C320.442 122.336 324.35 120.881 327.407 118.237C330.465 115.593 332.469 111.936 333.052 107.936L340.148 59.256C340.497 56.8655 340.326 54.428 339.649 52.1092C338.972 49.7903 337.803 47.6445 336.222 45.8176C334.642 43.9907 332.686 42.5255 330.489 41.5217C328.292 40.5178 325.904 39.9988 323.488 40V40Z" fill="#23B40C"/>
<path d="M354.8 147H272.06V414.668H354.8C358.904 414.669 362.968 413.861 366.76 412.29C370.552 410.72 373.998 408.418 376.9 405.516C379.802 402.614 382.104 399.168 383.674 395.376C385.245 391.584 386.053 387.52 386.052 383.416V178.252C386.053 174.148 385.245 170.084 383.674 166.292C382.104 162.5 379.802 159.054 376.9 156.152C373.998 153.25 370.552 150.948 366.76 149.378C362.968 147.807 358.904 146.999 354.8 147V147Z" fill="#FD9E27"/>
<path d="M272.06 147H354.812V414.668H272.06V147Z" fill="#23B40C"/>
<path d="M272.06 205H354.812V319.916H272.06V205Z" fill="#FD9E27"/>
<path d="M361.56 139.6L272.06 238.66V276.448L380.356 156.58C381.481 155.347 382.352 153.904 382.917 152.334C383.483 150.764 383.733 149.097 383.653 147.43C383.572 145.763 383.163 144.128 382.449 142.62C381.735 141.111 380.73 139.759 379.491 138.64C378.253 137.521 376.806 136.658 375.233 136.1C373.659 135.543 371.992 135.301 370.325 135.39C368.658 135.479 367.026 135.896 365.521 136.618C364.016 137.34 362.669 138.352 361.556 139.596L361.56 139.6Z" fill="#C7E2E7"/>
<path d="M272.06 414.668V444H409.06C409.06 436.221 405.97 428.76 400.469 423.259C394.968 417.758 387.507 414.668 379.728 414.668H272.06Z" fill="#FD9E27"/>
<path d="M272.06 444H409.06V472H272.06V444Z" fill="#23B40C"/>
<path d="M257.332 47H261C262.857 47 264.637 46.2625 265.95 44.9497C267.263 43.637 268 41.8565 268 40C268 38.1435 267.263 36.363 265.95 35.0503C264.637 33.7375 262.857 33 261 33H257.332C255.476 33 253.695 33.7375 252.382 35.0503C251.07 36.363 250.332 38.1435 250.332 40C250.332 41.8565 251.07 43.637 252.382 44.9497C253.695 46.2625 255.476 47 257.332 47V47Z" fill="#171E3C"/>
<path d="M327.332 437H325.5C323.643 437 321.863 437.738 320.55 439.05C319.238 440.363 318.5 442.143 318.5 444C318.5 445.857 319.238 447.637 320.55 448.95C321.863 450.262 323.643 451 325.5 451H327.332C329.189 451 330.969 450.262 332.282 448.95C333.594 447.637 334.332 445.857 334.332 444C334.332 442.143 333.594 440.363 332.282 439.05C330.969 437.738 329.189 437 327.332 437V437Z" fill="#171E3C"/>
<path d="M256.724 245.2L255.064 247.036C254.447 247.719 253.971 248.517 253.663 249.383C253.354 250.25 253.22 251.169 253.266 252.088C253.313 253.007 253.541 253.908 253.935 254.739C254.33 255.57 254.885 256.315 255.568 256.932C256.251 257.549 257.048 258.025 257.915 258.333C258.782 258.642 259.701 258.776 260.62 258.73C261.539 258.683 262.44 258.455 263.271 258.061C264.102 257.666 264.847 257.111 265.464 256.428L267.124 254.592C268.369 253.213 269.016 251.395 268.921 249.54C268.827 247.684 267.999 245.941 266.62 244.696C265.241 243.451 263.423 242.804 261.568 242.898C259.712 242.993 257.969 243.821 256.724 245.2V245.2Z" fill="#171E3C"/>
<path d="M384.108 407.96C389.893 401.092 393.064 392.4 393.06 383.42V178.252C393.049 171.306 391.149 164.493 387.564 158.544C390.029 154.635 391.038 149.982 390.413 145.402C389.789 140.823 387.57 136.61 384.148 133.504C382.242 131.756 380.006 130.408 377.57 129.54C375.134 128.673 372.549 128.303 369.968 128.452C367.387 128.576 364.856 129.21 362.521 130.318C360.187 131.426 358.096 132.986 356.368 134.908L351.76 140H323.392V128.18C327.684 126.854 331.515 124.346 334.447 120.943C337.38 117.54 339.294 113.381 339.972 108.94L347.064 60.264C347.557 56.8801 347.316 53.4298 346.357 50.1473C345.398 46.8648 343.744 43.8272 341.507 41.2407C339.27 38.6543 336.503 36.5796 333.393 35.1577C330.283 33.7357 326.903 32.9999 323.484 33H282.684C280.827 33 279.047 33.7375 277.734 35.0503C276.421 36.363 275.684 38.1435 275.684 40C275.684 41.8565 276.421 43.637 277.734 44.9497C279.047 46.2625 280.827 47 282.684 47H323.484C324.894 47.0013 326.287 47.3059 327.569 47.8931C328.85 48.4804 329.991 49.3366 330.912 50.4035C331.834 51.4705 332.515 52.7232 332.91 54.0768C333.305 55.4303 333.404 56.8529 333.2 58.248L326.108 106.928C325.754 109.258 324.579 111.385 322.796 112.925C321.012 114.465 318.736 115.318 316.38 115.328H227.732C225.375 115.318 223.1 114.465 221.316 112.925C219.532 111.385 218.358 109.258 218.004 106.928L210.908 58.248C210.705 56.8521 210.805 55.429 211.201 54.0752C211.597 52.7214 212.28 51.4686 213.202 50.4018C214.125 49.3349 215.266 48.479 216.549 47.892C217.832 47.3051 219.225 47.0009 220.636 47H233.336C235.192 47 236.973 46.2625 238.286 44.9497C239.598 43.637 240.336 41.8565 240.336 40C240.336 38.1435 239.598 36.363 238.286 35.0503C236.973 33.7375 235.192 33 233.336 33H220.632C217.212 32.9999 213.833 33.7357 210.723 35.1577C207.613 36.5796 204.845 38.6543 202.608 41.2407C200.371 43.8272 198.717 46.8648 197.758 50.1473C196.8 53.4298 196.559 56.8801 197.052 60.264L204.148 108.94C204.825 113.381 206.74 117.54 209.672 120.943C212.605 124.346 216.436 126.854 220.728 128.18V140H189.308C179.167 140.013 169.445 144.047 162.275 151.218C155.105 158.389 151.071 168.111 151.06 178.252V350.092L143.116 358.892L140.144 356.208C139.462 355.591 138.665 355.115 137.799 354.806C136.932 354.498 136.014 354.363 135.095 354.41C134.177 354.457 133.277 354.684 132.446 355.079C131.616 355.474 130.872 356.029 130.256 356.712L97.7438 392.712C97.1275 393.394 96.6517 394.191 96.3435 395.058C96.0353 395.924 95.9008 396.842 95.9476 397.76C95.9944 398.679 96.2216 399.579 96.6163 400.409C97.011 401.239 97.5654 401.984 98.2478 402.6L100.724 404.836V472C100.724 473.857 101.461 475.637 102.774 476.95C104.087 478.262 105.867 479 107.724 479C109.58 479 111.361 478.262 112.674 476.95C113.986 475.637 114.724 473.857 114.724 472V417.464L130.324 431.548C128.847 435.534 128.081 439.749 128.06 444V472C128.06 473.857 128.797 475.637 130.11 476.95C131.423 478.262 133.203 479 135.06 479H409.06C410.916 479 412.697 478.262 414.01 476.95C415.322 475.637 416.06 473.857 416.06 472V444C416.046 435.129 412.791 426.569 406.906 419.932C401.021 413.294 392.913 409.036 384.108 407.96V407.96ZM196.308 407.668V382.8L201.724 376.8C202.34 376.118 202.816 375.321 203.124 374.454C203.432 373.588 203.567 372.67 203.52 371.752C203.473 370.833 203.246 369.933 202.851 369.103C202.457 368.273 201.902 367.528 201.22 366.912L200.42 366.188L235.896 326.92H327.332C329.188 326.92 330.969 326.183 332.282 324.87C333.594 323.557 334.332 321.777 334.332 319.92C334.332 318.063 333.594 316.283 332.282 314.97C330.969 313.657 329.188 312.92 327.332 312.92H248.532L339.724 212H347.808V407.668H196.308ZM377.624 170.068C378.569 172.699 379.054 175.473 379.056 178.268V383.416C379.046 388.621 377.365 393.685 374.259 397.862C371.154 402.039 366.789 405.107 361.808 406.616V187.556L377.624 170.068ZM370.668 142.468C371.787 142.411 372.898 142.688 373.861 143.263C374.823 143.838 375.593 144.685 376.074 145.698C376.554 146.71 376.724 147.842 376.562 148.951C376.399 150.06 375.911 151.096 375.16 151.928L190.036 356.8L183.456 350.86L181.628 349.208L249.316 274.276C250.56 272.897 251.206 271.08 251.111 269.225C251.015 267.37 250.187 265.628 248.808 264.384C247.429 263.14 245.612 262.494 243.757 262.589C241.901 262.685 240.16 263.513 238.916 264.892L196.308 312.064V212H286.708L273.428 226.7C272.812 227.383 272.336 228.18 272.028 229.047C271.72 229.914 271.586 230.833 271.633 231.751C271.68 232.67 271.908 233.57 272.303 234.401C272.698 235.231 273.253 235.976 273.936 236.592C274.619 237.208 275.416 237.684 276.283 237.992C277.15 238.3 278.068 238.434 278.987 238.387C279.906 238.34 280.806 238.112 281.636 237.717C282.467 237.322 283.212 236.767 283.828 236.084L366.752 144.288C367.25 143.735 367.853 143.285 368.526 142.966C369.199 142.647 369.928 142.464 370.672 142.428L370.668 142.468ZM234.732 129.336H309.392V140H234.732V129.336ZM189.308 154H339.112L299.36 198H196.308V170C196.308 168.143 195.57 166.363 194.258 165.05C192.945 163.737 191.164 163 189.308 163C187.451 163 185.671 163.737 184.358 165.05C183.045 166.363 182.308 168.143 182.308 170V327.56L171.236 339.812L170.436 339.084C169.053 337.849 167.241 337.204 165.388 337.288C165.276 337.288 165.172 337.328 165.064 337.336V178.252C165.07 171.823 167.626 165.66 172.171 161.113C176.716 156.567 182.879 154.008 189.308 154V154ZM166.24 354.168L186.64 372.604L173.904 386.704L153.504 368.268L166.24 354.168ZM135.952 371.28L172.684 404.48L149.56 430.08L112.828 396.88L135.952 371.28ZM402.056 465H142.056V451H302.832C304.688 451 306.469 450.262 307.782 448.95C309.094 447.637 309.832 445.857 309.832 444C309.832 442.143 309.094 440.363 307.782 439.05C306.469 437.738 304.688 437 302.832 437H162.16L176 421.668H379.728C384.424 421.674 388.999 423.159 392.804 425.91C396.609 428.662 399.451 432.542 400.928 437H351.832C349.975 437 348.195 437.738 346.882 439.05C345.569 440.363 344.832 442.143 344.832 444C344.832 445.857 345.569 447.637 346.882 448.95C348.195 450.262 349.975 451 351.832 451H402.06L402.056 465Z" fill="#171E3C"/>
</svg>
